<svg width="49" height="48" viewBox="0 0 49 48" fill="none" xmlns="http://www.w3.org/2000/svg">
<path d="M18.5482 10.896C19.7442 7.396 24.5802 7.29 25.9982 10.578L26.1182 10.898L27.7322 15.618C28.1021 16.7005 28.6998 17.691 29.4851 18.5228C30.2703 19.3547 31.2248 20.0084 32.2842 20.44L32.7182 20.602L37.4382 22.214C40.9382 23.41 41.0442 28.246 37.7582 29.664L37.4382 29.784L32.7182 31.398C31.6354 31.7676 30.6444 32.3653 29.8122 33.1505C28.98 33.9358 28.326 34.8904 27.8942 35.95L27.7322 36.382L26.1202 41.104C24.9242 44.604 20.0882 44.71 18.6722 41.424L18.5482 41.104L16.9362 36.384C16.5666 35.3012 15.9689 34.3102 15.1837 33.478C14.3984 32.6459 13.4438 31.9918 12.3842 31.56L11.9522 31.398L7.23219 29.786C3.73019 28.59 3.62419 23.754 6.91219 22.338L7.23219 22.214L11.9522 20.602C13.0347 20.2321 14.0252 19.6344 14.857 18.8491C15.6889 18.0639 16.3426 17.1094 16.7742 16.05L16.9362 15.618L18.5482 10.896ZM38.3342 4C38.7084 4 39.075 4.10496 39.3925 4.30294C39.71 4.50093 39.9656 4.78401 40.1302 5.12L40.2262 5.354L40.9262 7.406L42.9802 8.106C43.3552 8.23339 43.6839 8.46923 43.9247 8.78363C44.1654 9.09803 44.3075 9.47684 44.3327 9.87204C44.358 10.2672 44.2654 10.6611 44.0666 11.0036C43.8679 11.3461 43.5719 11.6219 43.2162 11.796L42.9802 11.892L40.9282 12.592L40.2282 14.646C40.1006 15.0209 39.8646 15.3494 39.55 15.59C39.2355 15.8306 38.8567 15.9724 38.4615 15.9974C38.0663 16.0225 37.6725 15.9297 37.3302 15.7308C36.9878 15.5318 36.7121 15.2357 36.5382 14.88L36.4422 14.646L35.7422 12.594L33.6882 11.894C33.3132 11.7666 32.9845 11.5308 32.7437 11.2164C32.5029 10.902 32.3609 10.5232 32.3356 10.128C32.3104 9.73275 32.403 9.33894 32.6018 8.99643C32.8005 8.65391 33.0965 8.37812 33.4522 8.204L33.6882 8.108L35.7402 7.408L36.4402 5.354C36.5751 4.95885 36.8302 4.61582 37.1699 4.373C37.5095 4.13018 37.9167 3.99975 38.3342 4Z" fill="#421ABC"/>
</svg>
