<svg width="49" height="48" viewBox="0 0 49 48" fill="none" xmlns="http://www.w3.org/2000/svg">
<path d="M10.5658 44.507C13.4733 44.7481 18.0884 45 24.6671 45C31.2457 45 35.8608 44.7481 38.7683 44.507C41.691 44.265 43.9461 41.9659 44.1834 38.9861C44.4199 36.0218 44.667 31.3165 44.667 24.6094C44.667 21.2472 44.6048 18.3889 44.5132 16H4.82094C4.71488 18.8685 4.66361 21.7388 4.66717 24.6094C4.66717 31.3165 4.91428 36.0218 5.15072 38.9861C5.38805 41.9659 7.64315 44.265 10.5658 44.507Z" fill="#421ABC"/>
<path fill-rule="evenodd" clip-rule="evenodd" d="M4.66699 13C4.7331 11.8402 4.80192 10.831 4.87344 9.9724C5.11414 7.0132 7.40127 4.7299 10.3654 4.4896C13.3143 4.2502 17.9949 4 24.667 4C31.3391 4 36.0197 4.2502 38.9685 4.4896C41.9327 4.7299 44.2198 7.0132 44.4605 9.9724C44.5315 10.8304 44.6003 11.8396 44.667 13H4.66699ZM9.79208 8.95C9.79208 8.59196 9.93455 8.24858 10.1881 7.99541C10.4417 7.74223 10.7857 7.6 11.1443 7.6H12.9474C13.306 7.6 13.65 7.74223 13.9036 7.99541C14.1572 8.24858 14.2996 8.59196 14.2996 8.95C14.2996 9.30804 14.1572 9.65142 13.9036 9.90459C13.65 10.1578 13.306 10.3 12.9474 10.3H11.1443C10.7857 10.3 10.4417 10.1578 10.1881 9.90459C9.93455 9.65142 9.79208 9.30804 9.79208 8.95ZM18.3564 7.6C17.9978 7.6 17.6538 7.74223 17.4002 7.99541C17.1466 8.24858 17.0042 8.59196 17.0042 8.95C17.0042 9.30804 17.1466 9.65142 17.4002 9.90459C17.6538 10.1578 17.9978 10.3 18.3564 10.3H20.1594C20.5181 10.3 20.862 10.1578 21.1156 9.90459C21.3692 9.65142 21.5117 9.30804 21.5117 8.95C21.5117 8.59196 21.3692 8.24858 21.1156 7.99541C20.862 7.74223 20.5181 7.6 20.1594 7.6H18.3564Z" fill="#421ABC"/>
</svg>
